<?xml version="1.0" encoding="iso-8859-1"?>
<!-- Generator: Adobe Illustrator 17.1.0, SVG Export Plug-In . SVG Version: 6.00 Build 0)  -->
<!DOCTYPE svg PUBLIC "-//W3C//DTD SVG 1.1//EN" "http://www.w3.org/Graphics/SVG/1.1/DTD/svg11.dtd">
<svg version="1.1" id="Capa_1" xmlns="http://www.w3.org/2000/svg" xmlns:xlink="http://www.w3.org/1999/xlink" x="0px" y="0px"
	 viewBox="0 0 219 219" style="enable-background:new 0 0 219 219;" xml:space="preserve">
<path style="fill:#FFFFFF;" d="M211.5,16.941H7.5c-4.143,0-7.5,3.358-7.5,7.5v63.301c0,4.142,3.357,7.5,7.5,7.5h8.174v99.317
	c0,4.142,3.357,7.5,7.5,7.5h18.717h48.783h105.14c4.143,0,7.5-3.358,7.5-7.5V95.242h8.187c4.143,0,7.5-3.358,7.5-7.5V24.441
	C219,20.299,215.643,16.941,211.5,16.941z M165.826,153.448h-42.306v-41.13h42.306V153.448z M83.174,112.61v74.449H49.391V112.61
	c0-0.161,0.131-0.292,0.291-0.292h33.2C83.043,112.319,83.174,112.449,83.174,112.61z"/>
<g>
</g>
<g>
</g>
<g>
</g>
<g>
</g>
<g>
</g>
<g>
</g>
<g>
</g>
<g>
</g>
<g>
</g>
<g>
</g>
<g>
</g>
<g>
</g>
<g>
</g>
<g>
</g>
<g>
</g>
</svg>
